<mxfile host="app.diagrams.net" modified="2021-12-12T07:40:33.953Z" agent="5.0 (Macintosh; Intel Mac OS X 10_15_7) AppleWebKit/537.36 (KHTML, like Gecko) Chrome/96.0.4664.93 Safari/537.36" etag="Qly7ojI174yrDEWje4yi" version="15.9.4" type="github">
  <diagram id="SIewvGbwPLP9iBz0HypN" name="Page-1">
    <mxGraphModel dx="786" dy="440" grid="1" gridSize="10" guides="1" tooltips="1" connect="1" arrows="1" fold="1" page="1" pageScale="1" pageWidth="827" pageHeight="1169" math="0" shadow="0">
      <root>
        <mxCell id="0" />
        <mxCell id="1" parent="0" />
        <mxCell id="uoer6yo6yHEHMaEhRmfS-4" value="package" style="shape=folder;fontStyle=1;spacingTop=10;tabWidth=40;tabHeight=14;tabPosition=left;html=1;" vertex="1" parent="1">
          <mxGeometry x="290" y="55" width="180" height="190" as="geometry" />
        </mxCell>
        <mxCell id="uoer6yo6yHEHMaEhRmfS-3" value="" style="edgeStyle=orthogonalEdgeStyle;rounded=0;orthogonalLoop=1;jettySize=auto;html=1;" edge="1" parent="1" source="uoer6yo6yHEHMaEhRmfS-1" target="uoer6yo6yHEHMaEhRmfS-2">
          <mxGeometry relative="1" as="geometry" />
        </mxCell>
        <mxCell id="uoer6yo6yHEHMaEhRmfS-1" value="Actor" style="shape=umlActor;verticalLabelPosition=bottom;verticalAlign=top;html=1;" vertex="1" parent="1">
          <mxGeometry x="220" y="105" width="50" height="90" as="geometry" />
        </mxCell>
        <mxCell id="uoer6yo6yHEHMaEhRmfS-2" value="Agregar&lt;br&gt;Mascotas" style="ellipse;whiteSpace=wrap;html=1;verticalAlign=top;" vertex="1" parent="1">
          <mxGeometry x="320" y="120" width="120" height="60" as="geometry" />
        </mxCell>
      </root>
    </mxGraphModel>
  </diagram>
</mxfile>
